
<svg xmlns="http://www.w3.org/2000/svg" width="361.333" height="248" version="1.0" viewBox="0 0 271 186">
  <path d="M146 15c-1.7 3.2.3 5.5 5.7 6.7 20.9 4.9 39.4 19.5 48.9 38.7 2.6 5.4 5.2 12.5 6.2 17.4 1.8 8.5 3.4 10.8 6.6 9.6 2.7-1 3-5.3.8-14.1-6.8-27.4-28.2-49.8-55.6-58.2-8.5-2.6-11.2-2.6-12.6-.1z"/>
  <path d="M142.2 33.2c-1.6 1.6-1.5 4.3.1 5.5.6.6 4.4 2 8.2 3.1 18.5 5.5 33.8 22.7 37.6 42 1.4 7.4 3.4 9.2 7 6.3 2.1-1.7 2.2-2 1-8.1-3.7-18.5-15.7-34.8-32-43.4-6.4-3.3-15.8-6.6-19.1-6.6-.9 0-2.1.5-2.8 1.2zM60.5 47.4c-1.7.7-3.6 2.5-4.3 4-.9 2-1.2 16.7-1.2 59.2v56.6l2.9 2.9 2.9 2.9h56.7c61.4 0 60.8.1 63.3-5.5.8-1.8 1.2-10.5 1.2-28.3v-25.6l-4 3.9-4 3.9-.2 21.5-.3 21.6h-110l-.3-54.8c-.2-43.4 0-54.7 1-54.8.7-.1 10.4-.2 21.5-.3l20.3-.1 4.2-4.3 4.3-4.2H89c-18.8.1-26.3.4-28.5 1.4z"/>
  <path d="M136.1 53.4c-.7.8-1.1 2.5-.9 3.8.2 1.8 1.4 2.5 6.4 3.8 8 2.1 14.4 6 18.8 11.3 4.1 5.1 5.5 8.2 7 16.1 1.3 6.5 3.4 8.9 6.4 7 2.4-1.6 2-11.3-.8-17.8-5.8-13.6-17.2-22.6-31.6-25-3-.5-4.4-.3-5.3.8z"/>
  <path d="M133.4 72.9c-6.3 2.9-8.9 7.2-8.9 15.1 0 7.9 2.6 12.2 8.9 15.1 5.4 2.5 9.3 2.4 14.6-.4 7.3-3.7 10.7-10.7 9-18.4-1.2-5.1-3.9-8.4-9-11.1-5.3-2.7-9.2-2.8-14.6-.3zM83 132.4c0 11.9.1 12.6 2 12.6 1.7 0 2-.7 2-5s.3-5 2-5c1.3 0 3.1 1.7 5.1 5 2.4 3.8 3.7 5 5.6 5h2.4l-2.2-3.3c-1.2-1.7-3.1-4.2-4.2-5.4l-2-2.3 2.6-2.1c3.2-2.5 3.6-6.8.8-9.3-1.2-1.1-4.3-2-8-2.3l-6.1-.6v12.7zm10.8-7.2c2.6 2.6-.1 6.8-4.4 6.8-2.1 0-2.4-.4-2.4-4 0-3.7.2-4 2.8-4 1.5 0 3.3.5 4 1.2zM105 132.5c0 11.8.1 12.5 2 12.5 1.7 0 2-.7 2-5v-5h4c3.3 0 4-.3 4-2s-.7-2-4-2c-3.9 0-4-.1-4-3.5 0-3.5 0-3.5 4.5-3.5 3.8 0 4.5-.3 4.5-2 0-1.8-.7-2-6.5-2H105v12.5zM123 132.5c0 11.8.1 12.5 2 12.5s2-.7 2-12.5-.1-12.5-2-12.5-2 .7-2 12.5zM133 132.4V145h5.6c11.5 0 17.5-7.1 14.5-17.1-1.5-4.9-4.9-6.8-13.6-7.6l-6.5-.6v12.7zm14.1-6.5c1.9 1.5 2.4 2.9 2.4 6.5 0 5.7-2.6 8.5-8.4 9.3l-4.1.6V124h3.9c2.3 0 4.8.8 6.2 1.9z"/>
</svg>
