
<?xml version="1.0" encoding="utf-8"?>
<svg version="1.0" xmlns="http://www.w3.org/2000/svg"
 width="512.000000pt" height="512.000000pt" viewBox="0 0 512.000000 512.000000"
 preserveAspectRatio="xMidYMid meet">

<g transform="translate(0.000000,512.000000) scale(0.100000,-0.100000)"
fill="#000000" stroke="none">
<path d="M725 4551 c-39 -23 -116 -109 -209 -231 -405 -535 -584 -1226 -491
-1889 19 -132 24 -144 64 -160 24 -10 34 -10 59 3 17 9 33 25 37 35 3 11 -2
73 -12 138 -24 164 -24 514 1 673 57 371 179 691 376 988 88 132 234 312 253
312 13 0 147 -130 147 -143 0 -4 -30 -42 -66 -85 -102 -119 -220 -303 -295
-457 -159 -330 -229 -659 -216 -1029 10 -295 66 -541 185 -814 74 -168 211
-387 332 -527 33 -38 60 -75 60 -80 0 -15 -136 -148 -148 -144 -13 6 -104 111
-169 197 -126 167 -257 405 -328 597 -43 118 -57 135 -102 135 -42 0 -73 -30
-73 -72 0 -42 78 -236 157 -388 125 -243 363 -563 447 -601 88 -40 147 -16
263 103 86 89 103 117 103 174 0 52 -21 91 -89 169 -84 94 -211 285 -273 409
-138 275 -205 541 -215 856 -16 512 154 998 487 1390 40 47 76 95 81 108 12
32 11 99 -2 125 -16 32 -179 196 -211 213 -38 20 -117 18 -153 -5z"/>
<path d="M4235 4551 c-46 -29 -193 -182 -204 -214 -13 -35 -14 -88 -2 -119 5
-13 41 -61 81 -108 444 -527 598 -1228 414 -1884 -75 -268 -238 -569 -415
-771 -68 -78 -89 -117 -89 -169 0 -57 17 -85 103 -174 163 -169 236 -165 391
19 314 375 510 814 582 1304 22 149 25 523 5 665 -33 243 -114 532 -200 717
-44 93 -61 113 -97 113 -33 0 -74 -37 -74 -67 0 -15 25 -85 55 -157 240 -578
245 -1225 13 -1815 -68 -174 -195 -399 -311 -553 -65 -86 -156 -191 -169 -197
-12 -4 -148 129 -148 144 0 5 25 39 56 75 495 577 654 1390 413 2113 -81 245
-241 530 -403 719 -36 43 -66 81 -66 85 0 13 134 143 147 143 14 0 123 -129
207 -243 32 -43 69 -82 83 -88 52 -19 104 35 90 92 -8 30 -149 218 -224 300
-31 33 -69 67 -84 75 -40 20 -118 18 -154 -5z"/>
<path d="M1239 4027 c-82 -55 -299 -370 -299 -434 0 -50 56 -86 104 -67 9 3
40 47 70 98 63 107 191 276 209 276 13 0 147 -130 147 -143 0 -4 -29 -45 -64
-91 -199 -261 -297 -551 -298 -881 0 -171 20 -299 72 -456 58 -174 139 -326
246 -457 24 -30 44 -59 44 -66 0 -6 -32 -43 -71 -81 l-71 -70 -49 55 c-116
128 -245 359 -308 550 -54 166 -72 270 -78 457 -6 189 4 305 42 461 24 99 22
125 -9 152 -24 19 -72 17 -95 -4 -24 -21 -64 -185 -82 -329 -15 -127 -7 -423
16 -537 49 -253 146 -490 279 -689 206 -305 289 -329 473 -139 89 92 103 117
103 182 0 45 -19 80 -105 190 -348 446 -342 1120 13 1573 31 41 65 88 74 106
20 36 24 107 7 140 -16 32 -179 196 -211 213 -42 22 -119 18 -159 -9z"/>
<path d="M3725 4038 c-31 -17 -195 -180 -211 -210 -19 -37 -18 -106 4 -145 9
-18 43 -65 74 -106 278 -354 349 -852 181 -1271 -45 -114 -102 -217 -165 -298
-89 -115 -108 -149 -108 -194 0 -65 14 -90 103 -182 184 -190 269 -165 471
138 103 153 192 346 240 517 53 189 61 253 61 498 -1 211 -3 240 -27 356 -65
301 -197 579 -383 802 -31 37 -71 77 -88 88 -36 21 -119 26 -152 7z m140 -210
c119 -150 235 -364 289 -535 85 -272 100 -604 40 -873 -56 -251 -201 -543
-353 -710 l-49 -55 -71 70 c-39 38 -71 75 -71 81 0 7 20 36 44 66 148 182 261
435 301 672 20 118 22 328 5 441 -37 252 -131 477 -282 676 -38 49 -68 92 -68
96 0 12 134 143 146 143 6 0 37 -33 69 -72z"/>
<path d="M1768 3509 c-75 -39 -203 -257 -252 -431 -87 -303 -39 -617 134 -887
86 -134 151 -175 240 -151 35 9 64 31 132 97 98 97 118 130 118 200 0 41 -8
61 -50 128 -84 132 -114 272 -90 412 12 76 61 190 106 249 29 37 42 110 30
161 -9 34 -180 211 -223 229 -45 19 -101 17 -145 -7z m154 -196 c38 -37 68
-73 68 -80 0 -6 -14 -32 -30 -57 -41 -60 -75 -137 -97 -216 -24 -88 -23 -271
1 -359 19 -70 73 -187 106 -228 11 -14 20 -33 20 -43 0 -21 -136 -154 -150
-145 -20 13 -93 130 -131 210 -59 125 -82 235 -82 385 0 143 16 229 65 353 34
85 134 247 152 247 6 0 41 -30 78 -67z"/>
<path d="M3205 3516 c-42 -19 -212 -196 -221 -229 -12 -51 1 -124 30 -161 45
-59 94 -173 106 -249 24 -140 -6 -280 -90 -412 -45 -71 -50 -85 -50 -136 0
-67 19 -97 132 -206 55 -53 85 -74 118 -83 89 -24 154 18 241 152 171 268 219
585 133 886 -50 177 -177 393 -254 432 -45 23 -102 25 -145 6z m135 -218 c107
-162 153 -319 153 -518 0 -150 -23 -260 -82 -385 -38 -80 -111 -197 -131 -210
-14 -9 -150 124 -150 145 0 10 9 29 20 43 33 41 87 158 106 228 24 88 25 271
1 359 -22 79 -56 156 -97 216 -16 25 -30 50 -30 57 0 15 131 147 145 147 6 0
35 -37 65 -82z"/>
<path d="M2433 3109 c-71 -27 -155 -106 -190 -177 -24 -49 -28 -69 -28 -147 0
-82 3 -97 33 -157 38 -77 91 -128 172 -167 79 -37 201 -37 281 1 79 36 133 89
171 166 30 60 33 75 33 157 0 78 -4 98 -28 147 -36 73 -119 150 -192 177 -74
28 -180 27 -252 0z m216 -149 c148 -75 148 -280 0 -354 -29 -14 -69 -26 -89
-26 -20 0 -60 12 -89 26 -187 94 -122 372 87 374 33 0 67 -7 91 -20z"/>
<path d="M1556 1276 l-26 -25 0 -324 c0 -313 1 -325 21 -351 15 -19 30 -26 55
-26 55 0 68 24 74 141 l5 100 100 -116 c55 -63 110 -118 121 -121 37 -10 66 0
87 28 29 39 17 67 -74 169 -45 50 -80 91 -78 93 2 1 26 15 52 30 127 73 152
246 51 349 -61 63 -84 71 -231 75 -130 4 -132 4 -157 -22z m275 -155 c36 -36
37 -60 3 -100 -24 -29 -31 -31 -90 -31 l-64 0 0 80 0 80 61 0 c54 0 64 -3 90
-29z"/>
<path d="M2185 1275 l-25 -24 0 -324 c0 -313 1 -325 21 -351 26 -33 79 -36
109 -6 18 18 20 33 20 150 l0 130 95 0 c90 0 98 2 122 26 20 20 24 31 19 57
-11 55 -36 67 -142 67 l-94 0 0 75 0 75 95 0 c52 0 105 5 119 11 51 23 55 103
7 128 -11 7 -83 11 -171 11 -147 0 -152 -1 -175 -25z"/>
<path d="M2741 1274 c-20 -26 -21 -38 -21 -354 l0 -327 23 -21 c33 -31 80 -29
106 4 20 26 21 38 21 349 0 311 -1 323 -21 349 -15 19 -30 26 -54 26 -24 0
-39 -7 -54 -26z"/>
<path d="M3049 1281 l-24 -19 0 -335 c0 -315 1 -336 19 -356 18 -19 30 -21
151 -21 93 0 145 5 178 16 136 46 229 220 213 401 -8 100 -38 173 -97 237 -72
79 -123 96 -288 96 -112 0 -132 -3 -152 -19z m302 -154 c19 -12 45 -43 59 -67
21 -39 25 -58 25 -135 0 -77 -4 -96 -25 -135 -39 -69 -78 -90 -166 -90 l-74 0
0 225 0 225 74 0 c60 0 79 -4 107 -23z"/>
</g>
</svg>
