<?xml version="1.0" encoding="iso-8859-1"?>
<!-- Uploaded to: SVG Repo, www.svgrepo.com, Generator: SVG Repo Mixer Tools -->
<svg version="1.1" id="Layer_1" xmlns="http://www.w3.org/2000/svg" xmlns:xlink="http://www.w3.org/1999/xlink" 
	 viewBox="0 0 512 512" xml:space="preserve">
<rect x="154.677" y="11.579" style="fill:#4CAF50;" width="202.638" height="347.38"/>
<circle style="fill:#FFFFFF;" cx="255.997" cy="287.457" r="26.054"/>
<rect x="177.836" y="448.317" style="fill:#FFC107;" width="156.321" height="52.107"/>
<g>
	<path style="fill:#231F20;" d="M319.686,166.549c0-6.394-5.184-11.579-11.579-11.579H203.893c-6.395,0-11.579,5.185-11.579,11.579
		c0,6.394,5.184,11.579,11.579,11.579h104.214C314.502,178.128,319.686,172.943,319.686,166.549z"/>
	<path style="fill:#231F20;" d="M203.893,131.811h104.214c6.395,0,11.579-5.185,11.579-11.579s-5.184-11.579-11.579-11.579H203.893
		c-6.395,0-11.579,5.185-11.579,11.579S197.499,131.811,203.893,131.811z"/>
	<path style="fill:#231F20;" d="M308.107,85.494H203.893c-6.395,0-11.579-5.185-11.579-11.579s5.184-11.579,11.579-11.579h104.214
		c6.395,0,11.579,5.185,11.579,11.579C319.686,80.308,314.502,85.494,308.107,85.494z"/>
	<path style="fill:#231F20;" d="M244.421,212.866v2.22c0,6.394,5.184,11.579,11.579,11.579c6.395,0,11.579-5.185,11.579-11.579
		v-2.22c0-6.394-5.184-11.579-11.579-11.579C249.605,201.287,244.421,206.472,244.421,212.866z"/>
	<path style="fill:#231F20;" d="M293.633,287.457c0-20.751-16.883-37.633-37.633-37.633s-37.633,16.882-37.633,37.633
		c0,20.751,16.883,37.633,37.633,37.633S293.633,308.208,293.633,287.457z M241.526,287.457c0-7.982,6.493-14.474,14.474-14.474
		s14.474,6.493,14.474,14.474c0,7.982-6.493,14.474-14.474,14.474S241.526,295.439,241.526,287.457z"/>
	<path style="fill:#231F20;" d="M497.429,462.788H345.74v-14.474c0-6.394-5.184-11.579-11.579-11.579h-66.581v-66.196h89.74
		c6.395,0,11.579-5.185,11.579-11.579V11.579C368.899,5.185,363.714,0,357.319,0H154.681c-6.395,0-11.579,5.185-11.579,11.579
		v347.38c0,6.394,5.184,11.579,11.579,11.579h89.74v66.196h-66.581c-6.395,0-11.579,5.185-11.579,11.579v14.474H14.571
		c-6.395,0-11.579,5.185-11.579,11.579c0,6.394,5.184,11.579,11.579,11.579H166.26v14.474c0,6.394,5.184,11.579,11.579,11.579
		h156.321c6.395,0,11.579-5.185,11.579-11.579v-14.474h151.689c6.395,0,11.579-5.185,11.579-11.579
		C509.008,467.973,503.824,462.788,497.429,462.788z M166.26,23.159h179.48V347.38H166.26L166.26,23.159L166.26,23.159z
		 M322.581,488.841H189.419v-28.948h133.162V488.841z"/>
</g>
</svg>